<svg width="25" height="32" viewBox="0 0 25 32" fill="none" xmlns="http://www.w3.org/2000/svg">
<path d="M13.7353 10.4291C12.3676 10.4291 11.25 9.30909 11.25 7.95636C11.25 7.30441 11.5118 6.67917 11.9779 6.21817C12.444 5.75717 13.0762 5.49818 13.7353 5.49818C15.1176 5.49818 16.2353 6.60364 16.2353 7.95636C16.2353 9.30909 15.1176 10.4291 13.7353 10.4291ZM9.26471 27.5345L0.544117 25.8182L1.04412 23.3455L7.14706 24.5818L9.13235 14.6036L6.89706 15.4764V19.6364H4.41176V13.8764L10.8824 11.1564L11.8676 11.04C12.75 11.04 13.4853 11.5345 13.9706 12.2764L15.2353 14.24C16.2353 16 18.2206 17.1927 20.5882 17.1927V19.6364C17.8529 19.6364 15.3529 18.4291 13.7353 16.5818L13 20.2764L15.6029 22.7345V32H13.1176V24.5818L10.5 22.1236L9.26471 27.5345ZM25 32H22.0588V2.90909H2.94118V21.9782L0 21.3673V0H25V32ZM2.94118 32H0V27.3164L2.94118 27.9273V32Z" fill="#C1C1C1"/>
</svg>
