<svg width="34" height="46" viewBox="0 0 34 46" fill="none" xmlns="http://www.w3.org/2000/svg">
<path d="M8.09963 27.7632C7.59764 26.5684 7.33856 25.2816 7.33813 23.9813V15.922H2.72295V23.9813C2.72295 26.6436 3.44138 29.1313 4.68133 31.2574L8.10117 27.7617L8.09963 27.7632ZM23.8774 11.6368V7.86271C23.8774 3.53822 20.5037 0 16.3777 0C12.2518 0 8.87806 3.53822 8.87806 7.86271V23.9813C8.87806 24.8729 9.0519 25.7174 9.3165 26.5193L23.8774 11.6368ZM25.4158 18.957V23.9828C25.4158 29.1848 21.3621 33.4181 16.3777 33.4181C14.9039 33.4181 13.5163 33.0407 12.2856 32.3849L8.9319 35.8099C10.4834 36.8662 12.2317 37.5836 14.0671 37.9171V41.2824H8.8796V46H23.8789V41.2824H18.6838V37.9171C25.1142 36.7739 30.0279 30.9696 30.0279 23.9844V15.922H28.3849L25.4158 18.957ZM23.8774 23.9813V20.5295L13.4348 31.2071C14.3394 31.616 15.3332 31.8424 16.3777 31.8424C20.5037 31.8424 23.8774 28.3058 23.8774 23.9813ZM31.8263 5.73506L0 38.2678L2.17682 40.493L34 7.96021L31.8263 5.73506Z" fill="#C1C1C1"/>
</svg>
