<svg width="47" height="37" viewBox="0 0 47 37" fill="none" xmlns="http://www.w3.org/2000/svg">
<path d="M5.2875 0C3.88517 0 2.54027 0.548185 1.54867 1.52396C0.557074 2.49974 0 3.82317 0 5.20312V31.7969C0 32.4802 0.136765 33.1568 0.402487 33.788C0.668209 34.4193 1.05768 34.9929 1.54867 35.476C2.03966 35.9592 2.62255 36.3425 3.26406 36.6039C3.90557 36.8654 4.59314 37 5.2875 37H41.7125C42.4069 37 43.0944 36.8654 43.7359 36.6039C44.3774 36.3425 44.9603 35.9592 45.4513 35.476C45.9423 34.9929 46.3318 34.4193 46.5975 33.788C46.8632 33.1568 47 32.4802 47 31.7969V5.20312C47 3.82317 46.4429 2.49974 45.4513 1.52396C44.4597 0.548185 43.1148 0 41.7125 0H5.2875ZM24.7455 8.01281L32.3947 15.54C32.5679 15.6988 32.7068 15.8903 32.8031 16.103C32.8995 16.3158 32.9513 16.5454 32.9554 16.7783C32.9596 17.0112 32.9161 17.2425 32.8274 17.4584C32.7388 17.6744 32.6069 17.8706 32.4395 18.0353C32.2721 18.2 32.0728 18.3298 31.8533 18.417C31.6338 18.5043 31.3988 18.5471 31.1621 18.543C30.9255 18.5389 30.6921 18.4879 30.4759 18.3931C30.2597 18.2983 30.0651 18.1616 29.9037 17.9912L25.2625 13.4264V28.3351C25.2625 28.795 25.0768 29.2362 24.7463 29.5615C24.4157 29.8867 23.9674 30.0694 23.5 30.0694C23.0326 30.0694 22.5843 29.8867 22.2537 29.5615C21.9232 29.2362 21.7375 28.795 21.7375 28.3351V13.431L17.108 17.9912C16.9466 18.1616 16.7521 18.2983 16.5359 18.3931C16.3197 18.4879 16.0863 18.5389 15.8496 18.543C15.613 18.5471 15.3779 18.5043 15.1584 18.417C14.939 18.3298 14.7396 18.2 14.5723 18.0353C14.4049 17.8706 14.273 17.6744 14.1843 17.4584C14.0957 17.2425 14.0521 17.0112 14.0563 16.7783C14.0605 16.5454 14.1123 16.3158 14.2086 16.103C14.3049 15.8903 14.4438 15.6988 14.617 15.54L22.2545 8.01513C22.585 7.69033 23.0329 7.5079 23.5 7.5079C23.9671 7.5079 24.415 7.68802 24.7455 8.01281Z" fill="#C1C1C1"/>
</svg>
