<svg width="55" height="81" viewBox="0 0 55 81" fill="none" xmlns="http://www.w3.org/2000/svg">
<path fill-rule="evenodd" clip-rule="evenodd" d="M10 0C4.47715 0 0 4.47716 0 10V70.3333C0 75.8562 4.47716 80.3333 10 80.3333H54.9114V0H10ZM15.9198 36.0804L30.8305 21.0421C34.4575 17.3841 40.675 19.9389 40.675 25.1065V55.1831C40.675 60.3507 34.4575 62.9635 30.8305 59.3055L15.9198 44.2673C15.3861 43.7301 14.9627 43.0921 14.6738 42.3896C14.3849 41.6872 14.2362 40.9343 14.2362 40.1738C14.2362 39.4134 14.3849 38.6604 14.6738 37.958C14.9627 37.2556 15.3861 36.6176 15.9198 36.0804Z" fill="#C1C1C1" fill-opacity="0.62"/>
</svg>
