<svg width="49" height="30" viewBox="0 0 49 30" fill="none" xmlns="http://www.w3.org/2000/svg">
<path d="M0 7.03125C0 5.16645 0.806773 3.37802 2.24284 2.05941C3.6789 0.74079 5.62662 0 7.65753 0H25.0146C27.0455 0 28.9932 0.74079 30.4293 2.05941C31.8653 3.37802 32.6721 5.16645 32.6721 7.03125V22.9688C32.6721 24.8336 31.8653 26.622 30.4293 27.9406C28.9932 29.2592 27.0455 30 25.0146 30H7.65753C5.62662 30 3.6789 29.2592 2.24284 27.9406C0.806773 26.622 0 24.8336 0 22.9688V7.03125ZM43.3967 27.5306L34.7141 22.0256V7.96875L43.3967 2.46375C45.7655 0.96 49 2.52 49 5.16375V24.8325C49 27.4762 45.7675 29.0325 43.3967 27.5306Z" fill="#C1C1C1"/>
</svg>
