<svg width="49" height="44" viewBox="0 0 49 44" fill="none" xmlns="http://www.w3.org/2000/svg">
<path d="M29.939 34.3356L7.056 11.517L2.744 7.3393L2.45 6.85068C1.69021 7.52821 1.08005 8.35592 0.658269 9.28121C0.236491 10.2065 0.012321 11.2092 0 12.2255V31.7703C0 33.7142 0.774373 35.5784 2.15277 36.9529C3.53116 38.3274 5.40066 39.0996 7.35 39.0996H29.4C30.8506 39.1021 32.2681 38.6679 33.467 37.8536L29.939 34.3356ZM46.55 10.1489C45.8056 9.81465 44.9791 9.70594 44.1733 9.83624C43.3675 9.96655 42.6178 10.3301 42.0175 10.8818L36.75 15.768V12.2255C36.75 10.2817 35.9756 8.41742 34.5972 7.04291C33.2188 5.66839 31.3493 4.8962 29.4 4.8962H14.2835L17.444 8.0478L33.5895 24.1478L38.4895 29.0341L43.3895 33.9202C43.8592 34.0975 44.3573 34.1885 44.8595 34.189C45.4425 34.1862 46.0184 34.0613 46.55 33.8225C47.2726 33.531 47.8917 33.0313 48.3281 32.3873C48.7645 31.7432 48.9984 30.984 49 30.2067V13.7647C48.9984 12.9874 48.7645 12.2282 48.3281 11.5841C47.8917 10.9401 47.2726 10.4404 46.55 10.1489ZM36.75 30.7687L31.85 25.8824L15.7045 9.7824L10.8045 4.8962L6.6395 0.718496C6.41107 0.490705 6.13987 0.310011 5.84141 0.186731C5.54295 0.0634514 5.22306 0 4.9 0C4.57695 0 4.25705 0.0634514 3.95859 0.186731C3.66013 0.310011 3.38893 0.490705 3.1605 0.718496C2.69916 1.17854 2.43998 1.8025 2.43998 2.4531C2.43998 3.1037 2.69916 3.72766 3.1605 4.1877L4.4835 5.48254L8.7955 9.7824L31.6785 32.601L35.2555 36.1679L42.3605 43.2773C42.5883 43.5063 42.8592 43.6881 43.1578 43.8121C43.4563 43.9361 43.7766 44 44.1 44C44.4234 44 44.7437 43.9361 45.0422 43.8121C45.3408 43.6881 45.6117 43.5063 45.8395 43.2773C46.0691 43.0502 46.2514 42.78 46.3758 42.4823C46.5002 42.1846 46.5642 41.8653 46.5642 41.5427C46.5642 41.2202 46.5002 40.9009 46.3758 40.6032C46.2514 40.3055 46.0691 40.0353 45.8395 39.8081L36.75 30.7687Z" fill="#C1C1C1"/>
</svg>
