<svg width="80" height="84" viewBox="0 0 80 84" fill="none" xmlns="http://www.w3.org/2000/svg">
<rect width="80" height="84" fill="#303232"/>
<path d="M65.7777 61.3333H62.5555C60.7759 61.3333 59.3333 62.776 59.3333 64.5555V67.7778C59.3333 69.5573 60.7759 71 62.5555 71H65.7777C67.5573 71 68.9999 69.5573 68.9999 67.7778V64.5555C68.9999 62.776 67.5573 61.3333 65.7777 61.3333Z" fill="#BBBBBB"/>
<path d="M65.7777 37.1667H62.5555C60.7759 37.1667 59.3333 38.6093 59.3333 40.3889V43.6111C59.3333 45.3907 60.7759 46.8334 62.5555 46.8334H65.7777C67.5573 46.8334 68.9999 45.3907 68.9999 43.6111V40.3889C68.9999 38.6093 67.5573 37.1667 65.7777 37.1667Z" fill="#BBBBBB"/>
<path d="M65.7777 13H62.5555C60.7759 13 59.3333 14.4426 59.3333 16.2222V19.4444C59.3333 21.224 60.7759 22.6667 62.5555 22.6667H65.7777C67.5573 22.6667 68.9999 21.224 68.9999 19.4444V16.2222C68.9999 14.4426 67.5573 13 65.7777 13Z" fill="#BBBBBB"/>
<path d="M41.6112 61.3333H38.389C36.6094 61.3333 35.1667 62.776 35.1667 64.5555V67.7778C35.1667 69.5573 36.6094 71 38.389 71H41.6112C43.3908 71 44.8334 69.5573 44.8334 67.7778V64.5555C44.8334 62.776 43.3908 61.3333 41.6112 61.3333Z" fill="#BBBBBB"/>
<path d="M41.6112 37.1667H38.389C36.6094 37.1667 35.1667 38.6093 35.1667 40.3889V43.6111C35.1667 45.3907 36.6094 46.8334 38.389 46.8334H41.6112C43.3908 46.8334 44.8334 45.3907 44.8334 43.6111V40.3889C44.8334 38.6093 43.3908 37.1667 41.6112 37.1667Z" fill="#BBBBBB"/>
<path d="M41.6112 13H38.389C36.6094 13 35.1667 14.4426 35.1667 16.2222V19.4444C35.1667 21.224 36.6094 22.6667 38.389 22.6667H41.6112C43.3908 22.6667 44.8334 21.224 44.8334 19.4444V16.2222C44.8334 14.4426 43.3908 13 41.6112 13Z" fill="#BBBBBB"/>
<path d="M17.4444 61.3333H14.2222C12.4426 61.3333 11 62.776 11 64.5555V67.7778C11 69.5573 12.4426 71 14.2222 71H17.4444C19.224 71 20.6667 69.5573 20.6667 67.7778V64.5555C20.6667 62.776 19.224 61.3333 17.4444 61.3333Z" fill="#BBBBBB"/>
<path d="M17.4444 37.1667H14.2222C12.4426 37.1667 11 38.6093 11 40.3889V43.6111C11 45.3907 12.4426 46.8334 14.2222 46.8334H17.4444C19.224 46.8334 20.6667 45.3907 20.6667 43.6111V40.3889C20.6667 38.6093 19.224 37.1667 17.4444 37.1667Z" fill="#BBBBBB"/>
<path d="M17.4444 13H14.2222C12.4426 13 11 14.4426 11 16.2222V19.4444C11 21.224 12.4426 22.6667 14.2222 22.6667H17.4444C19.224 22.6667 20.6667 21.224 20.6667 19.4444V16.2222C20.6667 14.4426 19.224 13 17.4444 13Z" fill="#BBBBBB"/>
</svg>
