<svg width="45" height="38" viewBox="0 0 45 38" fill="none" xmlns="http://www.w3.org/2000/svg">
<path d="M43.3011 2.40146C41.4138 -0.430088 37.4087 -0.826125 35.0034 1.57918L25.6697 10.9129C25.0387 11.5437 24.6252 12.3592 24.4894 13.241L23.5105 19.6078C23.4758 19.8335 23.4969 20.0642 23.5719 20.2799C23.647 20.4955 23.7737 20.6895 23.941 20.8449C24.1083 21.0003 24.3111 21.1123 24.5317 21.1713C24.7523 21.2302 24.984 21.2342 25.2065 21.183L31.6617 19.6939C32.4605 19.5097 33.1878 19.0955 33.7537 18.5025L42.7149 9.11395C43.5603 8.22793 44.079 7.08054 44.1855 5.86054C44.2921 4.64054 43.9802 3.42061 43.3011 2.40146ZM20.7461 19.1827C20.6419 19.86 20.7052 20.5524 20.9304 21.1996C21.1557 21.8468 21.5361 22.4289 22.0383 22.8951C22.5405 23.3613 23.1492 23.6974 23.8113 23.8741C24.4734 24.0507 25.1687 24.0624 25.8364 23.9083L32.2915 22.4192C33.6226 22.112 34.8345 21.4217 35.7775 20.4334L44.7499 11.0337V31.0078C44.7499 32.8623 44.0132 34.6408 42.7019 35.952C41.3907 37.2633 39.6122 38 37.7577 38H6.99217C5.13773 38 3.35925 37.2633 2.04796 35.952C0.736673 34.6408 8.95081e-08 32.8623 8.95081e-08 31.0078V20.2634C0.0820416 20.2276 0.1611 20.1836 0.237174 20.1314C0.88381 19.6839 1.677 19.0753 2.52501 18.4242C2.90986 18.1288 3.30702 17.8245 3.70529 17.5236C5.01982 16.5301 6.42832 15.5109 7.80774 14.6965C9.20953 13.8697 10.467 13.3227 11.4907 13.166C12.4505 13.0206 13.0446 13.2276 13.482 13.7388C13.7371 14.0353 13.8333 14.2937 13.8635 14.5276C13.8971 14.7793 13.8658 15.0925 13.7304 15.4986C13.4473 16.3522 12.8387 17.2797 12.0825 18.4298L12.0422 18.489C11.3374 19.5642 10.4771 20.8753 10.1202 22.219C9.93336 22.9238 9.86512 23.6968 10.0519 24.4934C10.2399 25.2989 10.6673 26.0316 11.3172 26.6828C12.2525 27.618 13.3198 28.0611 14.3916 28.1371C15.4286 28.2121 16.3807 27.9391 17.1392 27.6012C17.7951 27.3031 18.4135 26.9287 18.9818 26.4859C19.2323 26.2908 19.4735 26.0839 19.7045 25.8661L19.719 25.8526L19.7246 25.847L19.7258 25.8459L19.7269 25.8448C19.982 25.5814 20.1235 25.2284 20.1208 24.8617C20.1182 24.495 19.9716 24.144 19.7127 23.8844C19.4537 23.6247 19.1032 23.4772 18.7365 23.4735C18.3698 23.4698 18.0164 23.6102 17.7523 23.8646L17.7344 23.8814L17.6449 23.9642C17.5245 24.0716 17.4002 24.1746 17.2723 24.273C16.881 24.5788 16.4552 24.8379 16.0037 25.0449C15.5036 25.2675 15.0225 25.3783 14.5907 25.347C14.1947 25.3201 13.7584 25.168 13.2952 24.7048C12.964 24.3748 12.8298 24.0917 12.775 23.8557C12.7168 23.6118 12.7224 23.3164 12.8231 22.9383C13.0424 22.1127 13.6174 21.1875 14.3804 20.0251L14.5146 19.8226C15.1859 18.8045 15.9824 17.594 16.3852 16.3791C16.6089 15.7011 16.7409 14.9493 16.6369 14.1617C16.5306 13.3562 16.1894 12.6 15.6054 11.9186C14.3647 10.471 12.6855 10.1544 11.0678 10.4016C9.51271 10.6388 7.88717 11.4029 6.38581 12.2889C4.86431 13.1873 3.354 14.2837 2.01934 15.2917C1.5696 15.6325 1.14634 15.9555 0.749561 16.2605L0.748442 16.2616C0.487401 16.463 0.237175 16.6539 8.95081e-08 16.8344V9.19338C-0.000146842 8.27506 0.180603 7.3657 0.531926 6.51724C0.88325 5.66879 1.39827 4.89784 2.04756 4.24844C2.69686 3.59904 3.46772 3.0839 4.31612 2.73244C5.16453 2.38098 6.07385 2.20009 6.99217 2.20009H30.4266L23.6917 8.93383C22.6401 9.9854 21.9511 11.3449 21.725 12.8148L20.7461 19.1827Z" fill="#C1C1C1"/>
</svg>
